<?xml version="1.0" encoding="utf-8"?>
<!-- Generator: Adobe Illustrator 21.1.0, SVG Export Plug-In . SVG Version: 6.00 Build 0)  -->
<svg version="1.1" id="레이어_1" xmlns="http://www.w3.org/2000/svg" xmlns:xlink="http://www.w3.org/1999/xlink" x="0px"
	 y="0px" viewBox="0 0 454 78" style="enable-background:new 0 0 454 78;" xml:space="preserve">
<style type="text/css">
	.st0{fill:none;stroke:#FFFFFF;stroke-width:4;stroke-miterlimit:10;}
	.st1{fill:none;stroke:#FFFFFF;stroke-width:3;stroke-miterlimit:10;}
	.st2{fill:#FFFFFF;}
	.st3{fill:none;stroke:#FFFFFF;stroke-width:7.5;stroke-miterlimit:10;}
</style>
<title>대지 1</title>
<circle class="st0" cx="91.1" cy="33.6" r="21.6"/>
<line class="st1" x1="122.6" y1="22" x2="122.6" y2="47.2"/>
<line class="st1" x1="151.2" y1="22" x2="151.2" y2="47.2"/>
<path class="st1" d="M122.6,47c0,4.5,6.5,8.2,14.6,8.2"/>
<path class="st1" d="M151.2,47c0,4.5-6.5,8.2-14.6,8.2"/>
<path class="st2" d="M159.1,25h32.1v-3h-32.1C159,23,159,24,159.1,25z"/>
<line class="st1" x1="175.1" y1="23.5" x2="175.1" y2="57.2"/>
<line class="st3" x1="57" y1="64.8" x2="397.5" y2="64.8"/>
<polygon class="st2" points="111.3,57.2 115.5,57.2 94.8,33.2 90.8,33.2 "/>
<line class="st1" x1="239.2" y1="22" x2="239.2" y2="57.2"/>
<line class="st1" x1="240.1" y1="23.5" x2="261.1" y2="23.5"/>
<line class="st1" x1="239.2" y1="38.5" x2="261" y2="38.5"/>
<line class="st1" x1="240.1" y1="55.7" x2="261.1" y2="55.7"/>
<line class="st1" x1="324.1" y1="39.4" x2="334.4" y2="39.4"/>
<line class="st1" x1="316.5" y1="55.3" x2="341.3" y2="55.3"/>
<path class="st1" d="M347.1,46.9c0,4.6-2.7,8.4-6,8.4"/>
<path class="st1" d="M347.1,47.8c0-4.6-2.7-8.4-6-8.4"/>
<path class="st1" d="M318.2,31.9c0-4.6,2.7-8.4,6-8.4"/>
<path class="st1" d="M318.2,31c0,4.6,2.7,8.4,6,8.4"/>
<line class="st1" x1="341.4" y1="39.4" x2="331.1" y2="39.4"/>
<line class="st1" x1="354.8" y1="23.6" x2="387" y2="23.6"/>
<line class="st1" x1="354.8" y1="38.2" x2="376.5" y2="38.2"/>
<line class="st1" x1="354.8" y1="55.7" x2="387" y2="55.7"/>
<line class="st1" x1="356.3" y1="23.6" x2="356.3" y2="56.7"/>
<path class="st1" d="M268,31.5c0.1-4.3-3.2-7.9-7.5-8"/>
<path class="st1" d="M268,47.7c0.1,4.4-3.2,7.9-7.4,8l0,0"/>
<path class="st1" d="M268,48c0-5.3-3.4-9.5-7.5-9.5"/>
<path class="st1" d="M268,31c-0.1,4.3-3.5,7.6-7.5,7.5"/>
<polygon class="st2" points="215.8,25.8 212.6,25.8 197.3,57.2 200.5,57.2 "/>
<polygon class="st2" points="213.1,25.8 216.4,25.8 231.7,57.2 228.5,57.2 "/>
<polygon class="st2" points="212.6,25.8 214.5,21.9 216.4,25.8 "/>
<polygon class="st2" points="294.8,25.8 291.5,25.8 276.2,57.2 279.4,57.2 "/>
<polygon class="st2" points="292.1,25.8 295.3,25.8 310.7,57.2 307.4,57.2 "/>
<polygon class="st2" points="291.5,25.8 293.4,21.9 295.3,25.8 "/>
<line class="st1" x1="324" y1="23.5" x2="348.8" y2="23.5"/>
</svg>
